<?xml version="1.0" encoding="utf-8"?>
<!-- Generator: Adobe Illustrator 23.1.0, SVG Export Plug-In . SVG Version: 6.00 Build 0)  -->
<svg version="1.1" id="Layer_1" xmlns="http://www.w3.org/2000/svg" xmlns:xlink="http://www.w3.org/1999/xlink" x="0px" y="0px"
	 viewBox="0 0 276.23 53.51" style="enable-background:new 0 0 276.23 53.51;" xml:space="preserve">
<style type="text/css">
	.st0{fill:#FFFFFF;}
</style>
<g>
	<g>
		<path class="st0" d="M252.95,16.66c-1.49-0.64-3.74-1.07-6.66-1.07h-0.36c-1.78,0-4.2,0.22-6.54,0.64
			c-0.39,0.07-0.55,0.27-0.55,0.73v3.33c0,0.42,0.21,0.56,0.68,0.49c2.05-0.31,4.16-0.52,5.79-0.52h0.23c2.3,0,4.16,0.21,5.27,0.96
			c1.11,0.75,1.67,1.87,1.67,4.29v0.72c-1.69-0.36-3.72-0.59-5.58-0.59h-0.5c-3.1,0-6.02,0.75-7.88,2.48
			c-1.43,1.33-2.37,3.34-2.37,5.91v0.22c0,5.16,3.56,8.34,10.8,8.34h1.29c2.85,0,5.55-0.85,7.18-2.19c1.87-1.55,2.6-3.84,2.6-7.5
			v-7.46C258.03,20.35,256.04,17.99,252.95,16.66z M252.49,32.78c0,1.95-0.06,3.1-0.77,3.92c-0.75,0.86-2.09,1.27-3.89,1.27h-0.88
			c-3.33,0-5.27-1.34-5.27-3.9c0-1.17,0.46-2.22,1.18-2.84c0.85-0.73,2.08-1.08,4.2-1.08h0.47c1.61,0,3.44,0.16,4.96,0.56V32.78z
			 M275.66,15.59h-2.99c-4.29,0-7.64,1.49-9.07,4.6c-0.62,1.34-0.81,3.14-0.81,5.08v16.35c0,0.36,0.18,0.51,0.55,0.51h4.46
			c0.37,0,0.54-0.15,0.54-0.51V27.94c0-1.93,0.04-3.34,0.14-4.21c0.25-2.27,1.63-3.33,4.84-3.33h2.37c0.38,0,0.55-0.2,0.55-0.57
			v-3.67C276.23,15.78,276.05,15.59,275.66,15.59z M168.75,42.13h4.83c0.42,0,0.6-0.14,0.77-0.45c3.13-5.89,7.91-15.94,8.24-25.06
			c0.01-0.36-0.14-0.52-0.61-0.52l-4.5,0c-0.52,0-0.67,0.17-0.7,0.64c-0.21,3.32-0.91,7.18-1.94,10.63
			c-1.06,3.56-2.4,6.96-3.69,9.48c-1.29-2.52-2.63-5.92-3.69-9.48c-1.03-3.47-1.74-7.35-1.94-10.69c-0.03-0.48-0.29-0.57-0.75-0.57
			h-4.53c-0.48,0-0.61,0.22-0.58,0.71c0.64,8.94,3.41,15.88,8.24,24.89C168.07,42.01,168.32,42.13,168.75,42.13z M204.6,30.45
			c1.2,0.45,2.2,0.81,3.39,1.24c2.55,0.91,3.64,1.62,3.64,3.18c0,2.02-1.7,3.09-5.55,3.09h-0.14c-2.17,0-4.66-0.43-6.84-1.13
			c-0.45-0.15-0.7,0.03-0.7,0.48v3.32c0,0.42,0.07,0.67,0.54,0.83c2.09,0.72,4.96,1.12,7.31,1.12h0.18c6.83,0,10.54-3.04,10.54-7.95
			l0-0.07c0-1.9-0.62-3.61-1.79-4.75c-1.14-1.12-2.87-1.99-5.54-2.98c-1.43-0.53-2.53-0.94-3.52-1.3c-2.22-0.81-2.84-1.57-2.84-2.71
			c0-1.89,1.85-2.63,4.83-2.63l0.23,0c1.72,0,3.8,0.25,6.32,0.7c0.47,0.09,0.73-0.02,0.73-0.5v-3.41c0-0.45-0.12-0.58-0.59-0.68
			c-1.64-0.35-4.62-0.71-6.29-0.71h-0.4c-3.49,0-6.07,0.65-7.8,2.15c-1.4,1.22-2.34,3.07-2.34,5.27l0,0.16
			c0,2.04,0.71,3.69,1.92,4.81C201.04,29.04,202.57,29.7,204.6,30.45z M232.04,42.13c0.38,0,0.59-0.21,0.59-0.54v-3.71
			c0-0.33-0.21-0.54-0.59-0.54h-0.59c-1.77,0-2.86-0.43-3.52-1.13c-0.88-0.93-1.06-2.43-1.06-4.22V20.71h4.9
			c0.37,0,0.55-0.14,0.55-0.51v-3.6c0-0.36-0.18-0.5-0.55-0.5h-4.9v-4.67c0-0.36-0.18-0.51-0.56-0.51h-4.46
			c-0.37,0-0.54,0.15-0.54,0.51v20.87c0,3.63,0.72,5.95,2.32,7.54c1.5,1.49,3.84,2.3,7.23,2.3H232.04z M117.95,15.6h-1.35
			c-3.87,0-6.44,1.03-7.69,2.55h-0.03c-1.25-1.53-3.98-2.55-7.85-2.55h-1.38c-4.37,0-7.94,1.52-9.38,4.63
			c-0.62,1.34-0.82,3.14-0.82,5.08v16.23c0,0.36,0.21,0.6,0.57,0.6h4.4c0.36,0,0.57-0.24,0.57-0.6L95,28.02
			c0-1.93,0.05-3.34,0.14-4.21c0.25-2.27,1.94-3.37,5.15-3.37h0.37c3.21,0,4.97,1.1,5.22,3.37c0.1,0.87,0.15,2.27,0.15,4.21v13.52
			c0,0.36,0.22,0.59,0.58,0.59h4.41c0.36,0,0.57-0.28,0.57-0.64l0.01-13.47c0-1.93,0.05-3.34,0.14-4.21
			c0.25-2.27,2.01-3.37,5.22-3.37h0.37c3.21,0,4.89,1.1,5.14,3.37c0.1,0.87,0.14,2.27,0.14,4.21v13.52c0,0.37,0.22,0.59,0.58,0.59
			h4.41c0.36,0,0.57-0.28,0.57-0.64V25.3c0-1.94-0.21-3.74-0.82-5.08C125.89,17.11,122.31,15.6,117.95,15.6z M155.84,36.28
			c0.54-1.77,0.84-3.81,0.84-7.18c0-3.37-0.3-5.41-0.84-7.18c-1.35-4.52-4.93-6.32-10.72-6.32h-0.69c-5.79,0-9.36,1.8-10.72,6.32
			c-0.53,1.77-0.83,3.81-0.83,7.18c0,3.37,0.3,5.41,0.83,7.18c1.36,4.52,4.93,6.32,10.72,6.32h0.69
			C150.92,42.6,154.49,40.8,155.84,36.28z M150.83,32.9c-0.43,4.22-2.56,4.88-5.98,4.88h-0.14c-3.42,0-5.55-0.66-5.98-4.88
			c-0.13-1.27-0.24-2.33-0.24-3.8c0-1.47,0.11-2.52,0.24-3.8c0.43-4.22,2.56-4.88,5.98-4.88h0.14c3.42,0,5.55,0.66,5.98,4.88
			c0.13,1.28,0.24,2.33,0.24,3.8C151.07,30.57,150.97,31.62,150.83,32.9z M192.17,16.1h-4.46c-0.37,0-0.55,0.14-0.55,0.51
			l0.01,25.01c0,0.36,0.18,0.51,0.55,0.51h4.46c0.37,0,0.55-0.15,0.55-0.51l0-25.01C192.72,16.24,192.54,16.1,192.17,16.1z"/>
		<path class="st0" d="M13.63,6.2C10.27,6.25,4.07,7.91,1.24,19.48C0,24.52-0.47,29.77,0.58,36.03c0.97,5.77,2.7,10.75,3.86,13.49
			c0.4,0.95,1.02,1.93,1.5,2.54c1.38,1.74,3.68,1.63,4.64,1.16c1.05-0.52,2.26-1.77,1.82-4.63c-0.21-1.38-0.82-3.4-1.17-4.52
			c-1.05-3.44-2.46-7.6-2.58-10.56c-0.16-3.96,1.4-4.48,2.43-4.71c1.74-0.38,3.2,1.53,4.59,3.93c1.66,2.86,4.5,7.94,6.81,11.81
			c2.09,3.5,5.95,7.24,12.15,6.99c6.32-0.26,10.98-2.67,13.38-10.26c1.8-5.68,3.02-9.92,4.99-14.27c2.26-5,5.29-7.67,7.83-6.85
			c2.36,0.76,2.95,3.07,2.98,6.46c0.03,3-0.32,6.31-0.59,8.74c-0.1,0.88-0.28,2.66-0.2,3.64c0.14,1.94,0.98,3.87,3.16,4.18
			c2.32,0.33,4.19-1.53,4.93-3.77c0.29-0.88,0.54-2.24,0.68-3.2c0.68-4.85,0.86-8.11,0.55-13.07c-0.36-5.8-1.5-11.1-3.48-15.67
			c-1.9-4.38-4.94-7.19-8.84-7.43c-4.32-0.27-9.28,2.59-11.88,8.16c-2.4,5.13-4.32,10.39-5.48,13.08c-1.18,2.73-2.92,4.4-5.58,4.68
			c-3.26,0.34-6.07-2.02-8.13-5.4c-1.79-2.94-5.35-8.54-7.25-10.43C19.92,8.34,17.88,6.13,13.63,6.2z"/>
	</g>
</g>
</svg>
